#!OML:ASF Y:\EmotionMaleHayes\Project 1\Capture day 1\Session 1\Male1.ASF
:FULLY-SPECIFIED
:DEGREES
422
root 31.1437 16.5239 -7.57304 264.279 74.527 -98.8812
lowerback 22.2108 1.17173 -7.23594
upperback 4.99155 0.093047 -2.26708
thorax -6.8989 0.308601 1.61402
lowerneck -26.3478 -0.0955117 -2.61984
upperneck 14.4791 0.358645 2.26074
head 8.78867 0.281769 1.25647
rclavicle 2.22639e-014 6.36111e-014
rhumerus -42.9699 -8.24097 -37.1677
rradius 42.2915
rwrist -2.91893
rhand -15.2172 -27.9301
rfingers 7.12502
rthumb 10.9552 -57.6243
lclavicle 2.22639e-014 6.36111e-014
lhumerus -18.4895 -19.8412 82.9104
lradius 53.7887
lwrist 21.7149
lhand -26.4769 -11.657
lfingers 7.12502
lthumb 0.0850994 18.3227
rfemur -15.5919 -1.37591 -14.3756
rtibia 24.4949
rfoot -19.5067 -18.6808
rtoes 15.5906
lfemur -4.25952 13.0591 -7.82938
ltibia 37.2007
lfoot -34.9112 14.8823
ltoes -1.988
423
root 31.2173 16.4222 -7.6298 260.657 75.1174 -102.982
lowerback 22.2506 1.03547 -7.72018
upperback 5.19471 -0.172404 -2.46622
thorax -6.66767 0.187299 1.74462
lowerneck -26.6307 -0.239034 -2.76282
upperneck 14.1964 0.181101 2.50168
head 8.74074 0.222467 1.3363
rclavicle -4.45278e-014 -6.99722e-014
rhumerus -43.205 -10.7018 -34.2884
rradius 42.063
rwrist -4.13615
rhand -15.7284 -28.5091
rfingers 7.12502
rthumb 10.4621 -58.2288
lclavicle -4.45278e-014 -6.99722e-014
lhumerus -17.6174 -22.148 84.1478
lradius 54.0771
lwrist 21.4753
lhand -26.0377 -12.6323
lfingers 7.12502
lthumb 0.509305 17.3468
rfemur -16.6203 -1.66863 -14.3639
rtibia 26.8161
rfoot -18.5569 -17.9946
rtoes 11.9134
lfemur -5.44227 12.4533 -9.31494
ltibia 38.8349
lfoot -35.4105 14.933
ltoes -3.88387
424
root 31.3073 16.3368 -7.69165 257.491 75.2246 -106.38
lowerback 22.3904 0.910916 -7.60707
upperback 5.45701 -0.287468 -2.62067
thorax -6.44295 0.129555 1.54465
lowerneck -26.6778 -0.460716 -2.96852
upperneck 13.8388 -0.107754 2.86648
head 8.63333 0.120925 1.45082
rclavicle 2.38542e-014 1.17681e-013
rhumerus -43.8903 -13.15 -31.4992
rradius 42.2027
rwrist -5.70893
rhand -16.2475 -29.3728
rfingers 7.12502
rthumb 9.96134 -59.1171
lclavicle 2.38542e-014 1.17681e-013
lhumerus -16.7905 -24.7262 85.2574
lradius 54.6098
lwrist 21.3011
lhand -25.4921 -12.9832
lfingers 7.12502
lthumb 1.03624 16.994
rfemur -17.4705 -1.74197 -13.5845
rtibia 29.1406
rfoot -18.6402 -17.444
rtoes 12.7114
lfemur -5.85611 11.7166 -10.1178
ltibia 39.7726
lfoot -36.1195 14.5582
ltoes -3.46944
425
root 31.4137 16.2632 -7.75566 255.302 74.8956 -108.553
lowerback 22.6461 0.805325 -7.01309
upperback 5.69661 -0.280379 -2.69305
thorax -6.32106 0.128063 1.12828
lowerneck -26.3321 -0.70678 -3.14137
upperneck 13.396 -0.440558 3.18258
head 8.43725 -0.0087792 1.53423
rclavicle 1.59028e-014 6.36111e-014
rhumerus -44.74 -15.1732 -28.9203
rradius 42.537
rwrist -7.61029
rhand -16.7682 -30.4948
rfingers 7.12502
rthumb 9.45899 -60.2625
lclavicle 1.59028e-014 6.36111e-014
lhumerus -16.0998 -27.1116 86.3964
lradius 55.0432
lwrist 20.9661
lhand -24.8894 -13.794
lfingers 7.12502
lthumb 1.61837 16.1796
rfemur -18.3282 -1.82434 -12.0239
rtibia 31.656
rfoot -19.1682 -16.9657
rtoes 15.874
lfemur -5.5551 11.1284 -10.2025
ltibia 40.076
lfoot -36.6513 14.3413
ltoes -3.97669
426
root 31.5196 16.2094 -7.82017 253.525 74.2537 -110.356
lowerback 22.8798 0.663632 -6.14341
upperback 5.85722 -0.262186 -2.68719
thorax -6.27902 0.130424 0.636998
lowerneck -25.9145 -0.633762 -3.16235
upperneck 13.1287 -0.361705 3.28688
head 8.2763 0.0365673 1.58055
rclavicle -1.11319e-014 -2.8625e-014
rhumerus -45.5479 -16.4431 -26.759
rradius 42.9244
rwrist -10.1213
rhand -17.5944 -31.9271
rfingers 7.12502
rthumb 8.66176 -61.7294
lclavicle -1.11319e-014 -2.8625e-014
lhumerus -15.5721 -29.4796 87.5758
lradius 55.3625
lwrist 20.162
lhand -24.4598 -14.7198
lfingers 7.12502
lthumb 2.03332 15.2502
rfemur -19.3018 -1.93928 -9.88076
rtibia 34.2518
rfoot -19.1211 -17.074
rtoes 14.8174
lfemur -5.17588 10.5906 -9.88109
ltibia 40.0918
lfoot -36.8554 14.3954
ltoes -5.16913
427
root 31.6217 16.1705 -7.89458 251.439 73.8235 -112.685
lowerback 22.9586 0.497277 -5.43391
upperback 5.96754 -0.308163 -2.73779
thorax -6.20702 0.103393 0.192608
lowerneck -25.1286 -0.639898 -2.95417
upperneck 12.65 -0.465092 3.34608
head 7.99096 3.84672e-005 1.54541
rclavicle -3.02153e-014 3.18055e-014
rhumerus -46.1479 -17.3168 -24.8859
rradius 42.9925
rwrist -12.9887
rhand -18.9444 -33.2993
rfingers 7.12502
rthumb 7.35882 -63.1513
lclavicle -3.02153e-014 3.18055e-014
lhumerus -15.0388 -32.0487 88.6977
lradius 55.6789
lwrist 19.2342
lhand -24.2114 -15.4005
lfingers 7.12502
lthumb 2.27315 14.5671
rfemur -20.4165 -2.534 -7.93842
rtibia 36.9214
rfoot -20.1453 -17.0222
rtoes 18.5364
lfemur -5.01218 9.90759 -10.0457
ltibia 39.9398
lfoot -36.9424 14.6689
ltoes -6.38882
428
root 31.7346 16.1395 -7.98174 248.609 73.7971 -115.818
lowerback 22.9209 0.314185 -5.17285
upperback 6.24368 -0.446835 -2.83392
thorax -5.88378 0.0363417 -0.0196675
lowerneck -25.589 -0.735584 -2.88347
upperneck 12.8793 -0.595062 3.265
head 8.14648 -0.0627476 1.49219
rclavicle -3.65764e-014 -7.95139e-014
rhumerus -46.2357 -18.3717 -23.1878
rradius 42.7653
rwrist -15.66
rhand -20.5411 -34.4719
rfingers 7.12502
rthumb 5.8174 -64.3721
lclavicle -3.65764e-014 -7.95139e-014
lhumerus -14.0346 -34.4245 89.6282
lradius 56.0904
lwrist 18.6465
lhand -24.3333 -15.3147
lfingers 7.12502
lthumb 2.15542 14.6541
rfemur -21.4425 -3.78679 -6.5156
rtibia 39.56
rfoot -20.7066 -16.9927
rtoes 20.0212
lfemur -4.8348 8.97191 -10.9856
ltibia 39.7085
lfoot -37.2228 14.8668
ltoes -6.79885
